<?xml version="1.0" encoding="UTF-8"?>
<svg width="40px" height="40px" viewBox="0 0 23 26" version="1.1" xmlns="http://www.w3.org/2000/svg" xmlns:xlink="http://www.w3.org/1999/xlink">
    <!-- Generator: sketchtool 54.1 (76490) - https://sketchapp.com -->
    <title>E55F7C0A-D34F-464C-B319-1786585D541D</title>
    <desc>Created with sketchtool.</desc>
    <g id="Home-&amp;-brand-page" stroke="none" stroke-width="1" fill="none" fill-rule="evenodd">
        <g id="Brand-Page-(Updated)" transform="translate(-295.000000, -1903.000000)" fill="#fff" fill-rule="nonzero">
            <g id="Group-57" transform="translate(155.000000, 1740.000000)">
                <g id="Group-46" transform="translate(51.000000, 146.000000)">
                    <g id="Gift-icon" transform="translate(89.000000, 17.000000)">
                        <path d="M6.95614035,0.0001944643 C6.92095972,0.000913792253 6.88615972,0.00723116722 6.85087719,0.00922217456 C5.86315144,0.0641040952 4.88628463,0.674354226 4.24561404,1.83281965 C3.82098667,2.60063579 3.85609095,3.47427086 4.07894737,4.25224599 C4.30181474,5.03022662 4.70660996,5.76215235 5.14035088,6.40986875 C5.29502288,6.6408438 5.45631102,6.86155239 5.61403509,7.06889159 C6.20678428,7.06678272 6.79319411,7.06967159 7.38596491,7.06889159 C7.05829726,6.7003796 6.63745993,6.18747074 6.25438596,5.61543024 C5.87061333,5.0423278 5.53634105,4.41961483 5.37719298,3.86405445 C5.21805053,3.30851025 5.22934119,2.8746099 5.42105263,2.52795334 C5.96467172,1.54498967 6.50057011,1.34073886 7.13157895,1.40851726 C7.76259312,1.47629558 8.55628435,1.95415121 9.21929825,2.72656296 C9.88232253,3.49897472 10.4050883,4.53724691 10.6052632,5.55223627 C10.7086232,6.07634642 10.7274529,6.59049951 10.6491228,7.06889159 C11.2139298,7.06961381 11.7772985,7.06790938 12.3421053,7.06889159 C12.2629693,6.59000204 12.2824814,6.07697128 12.3859649,5.55223627 C12.5861451,4.53724691 13.1176881,3.49897443 13.7807018,2.72656296 C14.4437207,1.95415121 15.2374232,1.47629558 15.8684211,1.40851726 C16.4994192,1.34073886 17.026551,1.54498938 17.5701754,2.52795334 C17.7618872,2.87460961 17.7731778,3.30851054 17.6140351,3.86405445 C17.4548924,4.41961512 17.1206198,5.04232202 16.7368421,5.61543024 C16.351522,6.19083858 15.9331778,6.70892082 15.6052632,7.0779193 C16.1986198,7.07852597 16.7926136,7.0779193 17.3859649,7.0779193 C17.5439952,6.8694962 17.7040424,6.64224865 17.8596491,6.40986875 C18.2933903,5.76215235 18.6981906,5.03022662 18.9210526,4.25224599 C19.14392,3.47427086 19.1790027,2.60063579 18.754386,1.83281965 C18.1137154,0.674354226 17.1368592,0.0641040952 16.1491228,0.00922217456 C16.0080191,0.00139132201 15.8686793,0.00313042012 15.7280702,0.0182498848 C14.6031582,0.139063123 13.5825305,0.851170497 12.7631579,1.80573652 C12.2540637,2.39883079 11.8183767,3.09371199 11.5,3.84599903 C11.1815966,3.09340231 10.7461297,2.39904659 10.2368421,1.80573652 C9.41746919,0.851170497 8.39683649,0.139063123 7.27192982,0.0182498848 C7.16646877,0.00692408063 7.06167102,-0.00139267938 6.95614035,0.0001944643 Z M0.833333333,7.84527468 C0.372106667,7.84527468 0,8.2282261 0,8.70290715 L0,25.1423675 C0,25.6170431 0.372106667,26 0.833333333,26 L22.1666667,26 C22.6278987,26 23,25.6170431 23,25.1423675 L23,8.70290715 C23,8.2282261 22.6278987,7.84527468 22.1666667,7.84527468 L0.833333333,7.84527468 Z M8.93859649,11.6730238 C10.0022717,11.6730238 10.9449754,12.308581 11.5087719,13.1445406 C12.0726063,12.308581 13.0065002,11.6730238 14.0701754,11.6730238 C15.7947256,11.6730238 17.2236328,13.1123124 17.1929825,14.8868887 C17.149118,17.4252662 13.5416502,19.6650416 11.5087719,22.1722509 C9.59052211,19.773622 6.18335551,18.5085593 5.81578947,14.8868887 C5.63662512,13.1216694 7.21404632,11.6730238 8.93859649,11.6730238 Z" id="Shape"></path>
                    </g>
                </g>
            </g>
        </g>
    </g>
</svg>